<?xml version="1.0" encoding="UTF-8" standalone="no"?>
<!-- Created with Inkscape (http://www.inkscape.org/) -->
<svg
   xmlns:dc="http://purl.org/dc/elements/1.1/"
   xmlns:cc="http://creativecommons.org/ns#"
   xmlns:rdf="http://www.w3.org/1999/02/22-rdf-syntax-ns#"
   xmlns:svg="http://www.w3.org/2000/svg"
   xmlns="http://www.w3.org/2000/svg"
   xmlns:sodipodi="http://sodipodi.sourceforge.net/DTD/sodipodi-0.dtd"
   xmlns:inkscape="http://www.inkscape.org/namespaces/inkscape"
   id="svg2"
   sodipodi:version="0.32"
   inkscape:version="0.46"
   width="300"
   height="250"
   version="1.0"
   sodipodi:docname="Dove_peace.svg"
   inkscape:output_extension="org.inkscape.output.svg.inkscape">
  <metadata
     id="metadata7">
    <rdf:RDF>
      <cc:Work
         rdf:about="">
        <dc:format>image/svg+xml</dc:format>
        <dc:type
           rdf:resource="http://purl.org/dc/dcmitype/StillImage" />
      </cc:Work>
    </rdf:RDF>
  </metadata>
  <defs
     id="defs5">
    <inkscape:perspective
       sodipodi:type="inkscape:persp3d"
       inkscape:vp_x="0 : 526.18109 : 1"
       inkscape:vp_y="0 : 1000 : 0"
       inkscape:vp_z="744.09448 : 526.18109 : 1"
       inkscape:persp3d-origin="372.04724 : 350.78739 : 1"
       id="perspective9" />
    <inkscape:perspective
       id="perspective2391"
       inkscape:persp3d-origin="372.04724 : 350.78739 : 1"
       inkscape:vp_z="744.09448 : 526.18109 : 1"
       inkscape:vp_y="0 : 1000 : 0"
       inkscape:vp_x="0 : 526.18109 : 1"
       sodipodi:type="inkscape:persp3d" />
    <inkscape:perspective
       id="perspective2406"
       inkscape:persp3d-origin="372.04724 : 350.78739 : 1"
       inkscape:vp_z="744.09448 : 526.18109 : 1"
       inkscape:vp_y="0 : 1000 : 0"
       inkscape:vp_x="0 : 526.18109 : 1"
       sodipodi:type="inkscape:persp3d" />
    <inkscape:perspective
       id="perspective3191"
       inkscape:persp3d-origin="372.04724 : 350.78739 : 1"
       inkscape:vp_z="744.09448 : 526.18109 : 1"
       inkscape:vp_y="0 : 1000 : 0"
       inkscape:vp_x="0 : 526.18109 : 1"
       sodipodi:type="inkscape:persp3d" />
    <inkscape:perspective
       id="perspective3206"
       inkscape:persp3d-origin="372.04724 : 350.78739 : 1"
       inkscape:vp_z="744.09448 : 526.18109 : 1"
       inkscape:vp_y="0 : 1000 : 0"
       inkscape:vp_x="0 : 526.18109 : 1"
       sodipodi:type="inkscape:persp3d" />
    <inkscape:perspective
       id="perspective3221"
       inkscape:persp3d-origin="372.04724 : 350.78739 : 1"
       inkscape:vp_z="744.09448 : 526.18109 : 1"
       inkscape:vp_y="0 : 1000 : 0"
       inkscape:vp_x="0 : 526.18109 : 1"
       sodipodi:type="inkscape:persp3d" />
    <inkscape:perspective
       id="perspective3236"
       inkscape:persp3d-origin="372.04724 : 350.78739 : 1"
       inkscape:vp_z="744.09448 : 526.18109 : 1"
       inkscape:vp_y="0 : 1000 : 0"
       inkscape:vp_x="0 : 526.18109 : 1"
       sodipodi:type="inkscape:persp3d" />
    <inkscape:perspective
       id="perspective3253"
       inkscape:persp3d-origin="372.04724 : 350.78739 : 1"
       inkscape:vp_z="744.09448 : 526.18109 : 1"
       inkscape:vp_y="0 : 1000 : 0"
       inkscape:vp_x="0 : 526.18109 : 1"
       sodipodi:type="inkscape:persp3d" />
  </defs>
  <sodipodi:namedview
     inkscape:window-height="664"
     inkscape:window-width="710"
     inkscape:pageshadow="2"
     inkscape:pageopacity="0.0"
     guidetolerance="10.0"
     gridtolerance="10.0"
     objecttolerance="10.0"
     borderopacity="1.0"
     bordercolor="#666666"
     pagecolor="#ffffff"
     id="base"
     showgrid="false"
     inkscape:zoom="1"
     inkscape:cx="296.93668"
     inkscape:cy="130.85251"
     inkscape:window-x="45"
     inkscape:window-y="50"
     inkscape:current-layer="svg2" />
  <path
     style="fill:#000000"
     d="M 178.26455,245.75 C 175.04531,242.40498 173.38263,238.61351 169.82277,226.5 C 166.75029,216.04493 165.58463,214.16559 162.53405,214.74874 C 161.13171,215.01682 158.75036,214.76717 157.24216,214.19397 C 125.93533,202.29562 120.67672,198.71613 115.14553,185.5392 C 113.42849,181.44872 112.2506,177.51053 112.52799,176.78767 C 112.81527,176.03901 110.42939,173.18217 106.98419,170.14958 L 100.93605,164.82579 L 92.468025,165.53117 C 84.023396,166.23461 84.000088,166.23001 84.031803,163.86828 C 84.049295,162.56572 84.724295,160.62649 85.531803,159.55887 C 86.339312,158.49125 87,157.314 87,156.94276 C 87,156.20306 73.590264,150 71.991199,150 C 71.44604,150 71,150.7481 71,151.66245 C 71,154.39422 65.18956,162.60375 60.586488,166.37562 C 50.075286,174.98876 34.920171,173.41692 21.220462,162.2927 L 16.940924,158.81769 L 19.720462,156.08806 C 30.079774,145.91475 38.778787,142.44078 51.980309,143.205 L 60.126098,143.67655 L 55.725906,140.93781 C 53.305801,139.43149 49.864615,136.35427 48.078828,134.09953 C 46.29304,131.84479 44.246193,130 43.530278,130 C 42.084518,130 38.921871,131.57942 34.733736,134.39298 C 32.660077,135.78605 30.75619,136.13494 27.129614,135.78648 C 20.796349,135.17793 7.4133226,126.42756 3.6020091,120.40318 C 2.1709041,118.14109 1,116.05457 1,115.76646 C 1,115.47836 2.4625,114.63345 4.25,113.88888 C 8.6119039,112.07197 21.489764,112.32978 26.259209,114.32949 L 30.018418,115.90564 L 26.759209,111.84906 C 24.966644,109.61793 20.441995,105.74053 16.704434,103.23261 C 7.8251249,97.274542 4.5034455,93.100607 2.1946538,85 C 1.9595168,84.175 1.5629109,79.45 1.3133075,74.5 C 0.97461945,67.783323 1.213767,65.024929 2.2559372,63.627449 C 4.3221736,60.856765 7.4445361,62.322613 11.179361,67.816707 C 12.93037,70.392518 16.208997,74.75 18.4652,77.5 C 25.554025,86.140299 27.743951,94.282861 24.953117,101.62331 C 24.004697,104.11785 24.274085,104.74467 27.817335,108.28792 L 31.728435,112.19902 L 30.789105,106.34951 C 29.307621,97.123838 30.12616,86.926366 32.600692,83.780509 L 34.684194,81.131765 L 37.842097,84.479749 C 39.578944,86.32114 41,88.238051 41,88.739552 C 41,89.241053 42.101657,90.686325 43.448127,91.951268 C 44.794597,93.216211 46.179219,95.539492 46.525064,97.114114 C 46.870909,98.688737 47.569252,100.23378 48.076937,100.54755 C 48.584621,100.86132 49,104.4965 49,108.62574 C 49,115.1853 48.66906,116.56733 46.379512,119.56908 C 43.477891,123.3733 43.158316,122.37718 49.994815,130.838 C 52.838711,134.35759 63,141.2107 63,139.60913 C 63,139.37562 61.862166,136.99145 60.471481,134.31096 C 59.080796,131.63048 57.184641,125.77003 56.257804,121.28774 C 54.810603,114.28892 54.742629,111.97187 55.776432,104.87895 C 56.438514,100.33641 57.425576,96.174424 57.969903,95.630097 C 60.826826,92.773174 71.554469,103.15088 76.61035,113.66249 C 80.030713,120.77372 80.178822,121.52092 79.847358,129.99293 C 79.531834,138.05749 79.250241,139.13174 76.774791,141.71442 L 74.049581,144.55769 L 79.51812,146.91834 C 82.525816,148.2167 85.49476,149.89122 86.115774,150.6395 C 88.685492,153.73582 90,152.15484 90,145.96788 C 90,138.78022 91.508062,134.84474 97.456874,126.50823 C 101.85128,120.35003 109.46212,114.37392 114.03104,113.49402 C 115.26281,113.25681 116.39023,112.93611 116.53642,112.78136 C 116.68261,112.62661 117.08752,109.575 117.43622,106 C 118.42845,95.827194 120.03471,90.025069 123.80354,83 C 126.93385,77.165133 133.70331,66.28773 135.00569,65 C 135.28382,64.725 136.84284,62.715978 138.47018,60.535507 C 140.09752,58.355035 142.13594,55.864057 143,55 C 147.29508,50.704922 150.09406,45.783426 151.56305,39.943461 C 153.63369,31.711636 154.88583,30.27671 157.88062,32.703689 C 159.58431,34.084362 160.18106,35.798986 160.45964,40.11397 C 160.93177,47.426658 162.38479,58.559416 162.95723,59.25 C 163.07121,59.3875 163.36247,60.85 163.60448,62.5 C 163.84649,64.15 164.4564,66.4 164.95985,67.5 C 165.46329,68.6 168.43527,74.892443 171.56424,81.483206 C 179.00827,97.163063 180.23051,100.70076 178.99886,103.00212 C 178.46227,104.00476 184.61367,98.311378 192.66865,90.350163 C 200.72363,82.388948 210.0559,73.786792 213.40703,71.23426 C 216.75816,68.681728 219.725,66.347302 220,66.046647 C 220.275,65.745991 222.75,63.943062 225.5,62.040137 C 229.46632,59.227437 233.25109,56.734742 237.483,53.741498 C 240.49209,51.807701 243.18126,49.795137 246.40561,47.723685 C 248.49392,46.471712 250.9943,44.76258 253.25,43.496281 C 262.61516,37.742856 271.31695,30.937402 279.52363,23.51386 C 286.56426,16.483031 288.41175,13.589418 291.50383,4.75 C 292.87545,0.8289238 293.59273,0 295.61409,0 C 296.96086,0 298.33651,0.71334398 298.67107,1.5852088 C 299.4852,3.7067851 297.2884,54.291029 296.1342,60 C 295.63382,62.475 294.69759,67.425 294.05368,71 C 291.85001,83.234828 286.42107,96.143542 278.6642,107.59245 C 274.52546,113.7011 266.45688,120.18023 259,123.38295 C 254.31941,125.39325 242.4667,129 240.5409,129 C 239.69341,129 239,129.45 239,130 C 239,130.58847 242.50856,131 247.52568,131 L 256.05136,131 L 254.52578,133.95014 C 252.79384,137.29934 246.11477,143.17037 240.37166,146.39188 C 238.24225,147.58634 236.66857,148.99931 236.8746,149.53182 C 237.08063,150.06432 240.1353,151.29061 243.66276,152.25691 C 247.79176,153.38799 251.93281,155.4588 255.28816,158.0704 C 262.5875,163.75177 276.13467,177.1572 283.24968,185.73937 C 289.05845,192.74594 289.21089,193.07665 287.99019,196.02368 C 286.06066,200.68198 278.6981,206.5157 270.18402,210.13239 C 260.4705,214.25858 249.05786,215.23172 242.90734,212.45822 C 239.16856,210.77226 239,210.49354 239,205.99735 C 239,200.25876 237.50246,195.54886 234.31101,191.25 C 231.39757,187.32563 229.14758,187.14762 225.92431,190.58645 C 222.0358,194.73503 211.09545,202.16684 203.56239,205.77696 C 192.96707,210.85463 185.68097,213 179.03155,213 C 175.2244,213 173,213.41559 173,214.12689 C 173,214.74668 174.88616,218.67067 177.19148,222.84687 C 179.49679,227.02307 182.58897,232.70347 184.06298,235.46998 C 186.2988,239.66629 187.26155,240.55194 189.87151,240.81336 C 193.58839,241.18565 193.76402,241.96009 190.75,244.68716 C 189.0571,246.21889 183.12257,249 181.54694,249 C 181.46191,249 179.98483,247.5375 178.26455,245.75 z"
     id="path2397"
     sodipodi:nodetypes="cssssscccssssssccccccssssssscccsssssssccccccsssssssssssssscccssssssssssssssssssssscccccssssssssscccsssssssssssssssssssc" />
  <path
     style="fill:#ffffff;fill-opacity:1"
     d="M 153.5,207.58488 C 149.65,206.346 142.12124,203.30588 136.76943,200.82905 C 124.89982,195.33577 119.11806,189.56297 117.41038,181.5 C 116.75451,178.40322 114.88196,174.95492 114.11394,175.42958 C 112.9723,176.13516 106,167.67289 106,165.5817 C 106,162.51894 109.35303,163.93374 125.52545,173.82036 C 142.16621,183.9933 145.08177,186.17423 151.53297,193.27485 C 156.23384,198.44894 162,207.36886 162,209.46676 C 162,210.24321 161.23445,210.07373 153.5,207.58488 z M 168.08346,206.25 C 166.94953,204.7375 165.66075,203.05 165.21951,202.5 C 164.77826,201.95 163.01073,199.475 161.29165,197 C 156.59843,190.24306 145.3817,179.7464 137.5,174.73568 C 130.11588,170.0413 108.20112,158.55942 106.5,158.49373 C 105.95,158.47249 105.63977,157.64485 105.81061,156.65452 C 105.98145,155.66419 104.45346,152.81863 102.41508,150.33106 C 99.20215,146.4101 98.329076,145.88418 95.854472,146.37911 C 93.055098,146.93898 93,146.86355 93,142.47138 C 93,132.8642 104.06484,119.84992 114.5,117.18344 C 119.7797,115.83432 130.34777,117.87067 130.82332,120.32876 C 131.03812,121.43901 132.13545,122 134.09238,122 C 136.76804,122 136.97806,122.23922 136.38321,124.60929 C 135.75838,127.09885 135.87249,127.18692 138.87012,126.52853 C 141.91728,125.85926 141.98236,125.9162 141.03071,128.41924 C 140.10744,130.84761 140.2315,131 143.13174,131 C 146.31665,131 146.28756,130.88143 144.29708,135.75 C 143.96655,136.55845 144.69449,137 146.35783,137 C 149.74357,137 151.20233,139.88252 150.38938,144.96638 C 149.66627,149.48849 150.20672,149.77791 155.679,147.79911 C 158.50993,146.77543 159,146.12009 159,143.35813 C 159,141.57608 159.45,139.83992 160,139.5 C 160.55,139.16008 161,138.22563 161,137.42344 C 161,134.83214 170.93057,119.86043 180.5913,107.88684 C 186.97966,99.969058 193.61534,93.195963 201.25119,86.79914 C 222.50784,68.991667 225.15383,67.184932 254.5,50.439875 C 264.4,44.79089 275.875,37.99347 280,35.334496 C 284.125,32.675523 287.77588,30.37054 288.11307,30.212311 C 290.21849,29.224316 293.59252,49.485516 292.62693,57.31822 C 291.15451,69.26216 288.97812,79.895491 287.8651,80.583371 C 287.3893,80.877435 287,81.826911 287,82.693316 C 287,85.223657 278.53699,102.37173 274.92055,107.16917 C 269.54029,114.30641 251.73608,123.56156 234,128.44086 C 230.425,129.42436 226.9375,130.38839 226.25,130.58314 C 225.5625,130.77789 225,131.40135 225,131.96862 C 225,132.58656 228.0434,133 232.59227,133 C 240.59511,133 244.90572,134.85021 244.24123,138 C 243.33976,142.27307 228.14282,148.2426 209.75,151.54855 C 205.8466,152.25015 205.28778,152.88778 207.04035,154.64035 C 207.76081,155.36081 205.51341,156.49848 199.73125,158.34035 C 195.13905,159.80316 190.5834,161 189.60757,161 C 188.63174,161 188.01812,161.5625 188.24397,162.25 C 189.648,166.524 215,160.88949 215,156.30344 C 215,155.60751 216.2375,154.74846 217.75,154.39446 C 219.2625,154.04045 222.975,153.08132 226,152.26305 C 235.06295,149.81152 236.56428,149.70714 238.26731,151.41017 C 239.14172,152.28458 240.36163,153 240.97823,153 C 245.79814,153 269.33985,174.91467 273.74268,183.5 C 277.26399,190.36639 278.15014,194.6305 276.36387,196.11298 C 275.58716,196.75759 274.78779,197.10838 274.5875,196.8925 C 274.03784,196.30009 265.71424,181.91493 264,178.59481 C 260.98622,172.75773 262.01681,178.69487 265.54739,187.50918 C 271.3752,202.05868 271.31327,201.56829 267.47161,202.74733 L 264.15999,203.7637 L 261.55861,195.63185 C 257.92842,184.28394 256.80339,182.98664 257.54182,191 C 257.87126,194.575 258.53382,199.2878 259.01418,201.47289 C 259.49454,203.65797 259.80036,205.53034 259.69378,205.6337 C 259.5872,205.73706 257.8574,206.12842 255.84979,206.50339 C 252.32114,207.16244 252.17831,207.07382 251.56121,203.84257 C 250.31855,197.3358 248.71698,191.94969 248.18348,192.48319 C 247.88618,192.78048 247.58949,194.48089 247.52416,196.26186 C 247.02479,209.87576 247.26708,209 244,209 L 241,209 L 241,202.64922 C 241,195.26092 239.71056,190.98288 235.89106,185.69898 L 233.14346,181.89797 L 235.04977,177.69898 C 238.49378,170.11293 237.10219,170.64514 229.98217,179.6371 C 226.12236,184.5117 220.15986,190.64436 216.73217,193.26525 C 204.97873,202.2522 187.3101,208.96086 175.32258,208.98819 C 170.83397,208.99843 169.87087,208.63414 168.08346,206.25 z M 170.25353,149.49322 C 171.5919,143.01795 173.17452,137.53637 173.86052,137 C 174.21223,136.725 175.4,134.7 176.5,132.5 C 178.51811,128.46379 190.28553,112.5596 192.06963,111.45697 C 192.59927,111.12963 192.79301,110.4741 192.50015,110.00024 C 191.76511,108.81092 184.15565,113.93424 183.47583,116.07615 C 183.17225,117.03265 182.266,118.06769 181.46193,118.37623 C 180.65787,118.68478 180,119.59603 180,120.40123 C 180,121.20643 179.1,122.15087 178,122.5 C 176.75529,122.89506 176,124.01303 176,125.4604 C 176,126.73949 175.325,128.04504 174.5,128.36163 C 173.675,128.67821 173,129.79625 173,130.84617 C 173,131.89609 172.30452,133.33231 171.45449,134.03777 C 170.60446,134.74323 170.14687,135.94037 170.43763,136.69807 C 170.72839,137.45577 170.28546,138.33696 169.45334,138.65628 C 168.54739,139.00392 168.16491,139.94422 168.5,141 C 168.8427,142.07976 168.44185,143.0002 167.46579,143.37475 C 166.58919,143.71114 166.00205,144.77693 166.16103,145.74318 C 166.32001,146.70943 166.09477,148.06653 165.66049,148.75895 C 164.45698,150.67787 165.93421,154.15932 167.79953,153.80009 C 168.79554,153.60828 169.74878,151.93531 170.25353,149.49322 z M 116.25,147.84657 C 117.2125,146.7091 118,144.75314 118,143.5 C 118,142.24686 117.2125,140.26233 116.25,139.08993 C 114.67216,137.16799 114.18027,137.08028 111.25,138.19838 C 107.97772,139.44698 106.93141,140.94581 109.25,141.06339 C 109.9375,141.09825 109.4875,141.53375 108.25,142.03116 C 105.54253,143.11943 105.22122,147.07837 107.64376,149.5009 C 109.68848,151.54562 113.78654,150.75788 116.25,147.84657 z M 199.96858,102.75 C 199.98586,102.3375 199.69793,102 199.32874,102 C 198.29503,102 195,105.1983 195,106.20167 C 195,107.26059 199.92288,103.84066 199.96858,102.75 z M 154.40281,133.06479 C 153.90627,132.00043 150.575,128.08998 147,124.37489 C 140.69743,117.82537 140.22663,117.5473 131.5,115.2201 C 121.27299,112.49279 119.83424,111.6333 120.47781,108.63558 C 124.32081,90.734856 127.26777,83.833418 137.01308,69.911934 C 140.95053,64.287158 144.69586,59.147104 145.33604,58.489593 C 145.97622,57.832081 148.3,54.995988 150.5,52.187164 C 152.7,49.37834 154.8375,47.062164 155.25,47.040106 C 155.6625,47.018047 156,48.825817 156,51.057371 C 156,57.666394 158.03411,69.274615 159.7574,72.5 C 160.63897,74.15 163.49772,77.975 166.11018,81 C 171.33538,87.050344 175,94.531696 175,99.148647 C 175,100.78921 175.45694,102.98528 176.01541,104.0288 C 176.86471,105.61572 176.04255,107.01665 170.98993,112.59201 C 167.66744,116.25825 163.04801,122.79355 160.72452,127.11491 C 158.40103,131.43627 156.23127,134.97824 155.90281,134.98596 C 155.57436,134.99368 154.89936,134.12916 154.40281,133.06479 z"
     id="path2412" />
  <path
     style="fill:#129712;fill-opacity:1"
     d="M 37.5,167.92392 C 33.877717,166.85928 25.184113,162.2995 22.718706,160.17115 C 21.054256,158.73425 21.228942,158.52272 25.381824,156.94632 C 27.826251,156.01843 32.677833,154.76662 36.163118,154.16452 C 45.142913,152.61322 55.90046,151.02467 60,150.64458 C 62.409509,150.42118 61.884547,150.27021 58.3151,150.16004 C 55.463404,150.07202 51.921168,149.54033 50.443463,148.9785 C 48.628832,148.28858 47.360598,148.28577 46.536354,148.96983 C 45.865149,149.52688 45.015236,149.6819 44.647658,149.31432 C 44.28008,148.94675 43.35768,149.49617 42.59788,150.53525 C 41.520485,152.00868 40.910099,152.17028 39.824674,151.26946 C 38.928273,150.52551 37.910983,150.44451 36.966462,151.04189 C 32.327764,153.9757 33.215158,150.54776 37.896319,147.44991 C 41.588915,145.00627 42.372699,144.88788 52.886608,145.18573 C 63.352149,145.4822 63.946742,145.3938 63.383276,143.62515 C 63.054761,142.59399 63.233316,141.46899 63.780065,141.12515 C 65.168215,140.25219 62.594696,128.31461 60.525418,126.02809 C 59.300834,124.67494 58.972936,122.65659 59.199292,117.86523 L 59.5,111.5 L 62.945418,120.91375 C 64.840398,126.0913 66.545428,129.86371 66.734374,129.29688 C 66.92332,128.73004 65.960784,124.07931 64.595406,118.96191 C 62.771998,112.12784 62.381385,109.15589 63.124154,107.76802 C 64.40186,105.3806 66.571559,106.05669 66.281018,108.75171 C 66.141558,110.04532 66.777066,110.96994 68.031018,111.29786 C 69.113958,111.58106 70,112.52989 70,113.40638 C 70,114.28287 70.675,115 71.5,115 C 73.47157,115 73.428493,116.62159 71.436618,117.38595 C 69.331171,118.19388 70.590314,120 73.259017,120 C 74.924226,120 75.133333,120.26667 74.2,121.2 C 72.468892,122.93111 72.709281,123.69071 75.193838,124.34044 C 77.290429,124.88871 77.310679,124.99922 75.650667,126.83351 C 74.047555,128.60493 74.041295,128.80187 75.569453,129.38828 C 76.884319,129.89284 76.979894,130.3193 76.033633,131.45947 C 75.20904,132.45305 75.148235,133.44246 75.836217,134.67182 C 76.929586,136.62556 75.69741,139.91567 73.354015,141.29969 C 72.609307,141.73952 72,143.00358 72,144.10871 C 72,145.21384 72.454027,145.83743 73.008949,145.49447 C 74.548355,144.54306 78,145.95454 78,147.53545 C 78,148.30582 79.2375,149.62693 80.75,150.47125 L 83.5,152.00637 L 80.5,151.35676 C 78.85,150.99947 76.458205,150.32304 75.1849,149.85357 C 71.328106,148.43158 69.711217,148.78769 70.27286,150.93542 C 70.565478,152.05439 70.192833,153.09576 69.389492,153.40403 C 68.625271,153.69729 68,154.53503 68,155.26567 C 68,157.40209 60.885479,163.62812 56,165.76706 C 50.650036,168.10935 41.686499,169.15438 37.5,167.92392 z M 112,164 C 111.175,163.46684 109.6,163.01684 108.5,163 C 105.37971,162.95222 103.29166,161.30834 104.63938,159.96062 C 105.70478,158.89522 110.04255,160.56381 115,163.94601 C 116.33333,164.85567 116.33333,164.96937 115,164.96937 C 114.175,164.96937 112.825,164.53316 112,164 z M 20.388368,130.07498 C 15.026734,126.97295 10,121.82749 10,119.44123 C 10,118.37685 12.304724,118.87019 19.5,121.47478 C 24.725,123.36615 29,124.72373 29,124.49162 C 29,124.2595 27.603384,122.47893 25.896408,120.5348 C 22.13566,116.25154 23.460999,116.10012 31.5,119.89456 C 34.8,121.45217 37.764722,122.3168 38.088271,121.81596 C 38.41182,121.31511 39.271417,121.62211 39.998485,122.49817 C 40.725553,123.37424 41.923331,123.85966 42.660214,123.57689 C 43.626046,123.20627 44,124.06117 44,126.63979 C 44,129.90463 43.792948,130.16485 41.627621,129.62139 C 40.322813,129.2939 37.960313,129.65254 36.377621,130.41837 C 30.294615,133.36179 25.906503,133.26755 20.388368,130.07498 z M 35.103592,116.4652 C 33.396616,114.52107 32.006891,112.38357 32.015313,111.7152 C 32.026645,110.81591 32.221621,110.80024 32.765313,111.65492 C 33.169391,112.29013 33.338423,107.39574 33.14094,100.7785 C 32.767103,88.252007 32.784034,88.207846 36.775228,91.299082 C 37.792701,92.087129 37.727408,92.643729 36.452197,94.052822 C 34.983647,95.675551 34.998055,95.899531 36.629731,96.812663 C 38.058885,97.612458 38.168335,98.092243 37.190431,99.270545 C 36.220738,100.43895 36.299005,101.00326 37.577969,102.06471 C 39.03928,103.27749 39.019638,103.51247 37.355212,104.72953 C 35.621116,105.99753 35.641605,106.09352 37.764912,106.64877 C 40.273599,107.30481 40.536535,108.06347 38.842382,109.75762 C 37.965557,110.63444 38.0106,111.30785 39.02808,112.53383 C 40.002745,113.70823 40.060487,114.34458 39.238484,114.85261 C 38.500395,115.30877 38.430342,116.06634 39.037474,117.02639 C 41.730915,121.28551 38.992935,120.89492 35.103592,116.4652 z M 19,103.26794 C 14.345293,100.23837 5.8517622,91.520244 3.9206412,87.789838 C 1.7667598,83.629119 1.448721,77.879846 3.1089801,73.117224 C 3.9762472,70.62938 4.5082084,70.176886 5.5496193,71.04118 C 6.2820318,71.649029 7.0204907,73.350928 7.1906392,74.82318 C 7.4097004,76.718661 8.1567544,77.593274 9.75,77.819551 C 12.229884,78.171751 12.674433,79.925567 10.767247,81.832753 C 9.7902424,82.809758 9.9977039,83.186639 11.767247,83.649385 C 14.322964,84.31772 14.367507,84.444789 12.964816,87.065741 C 12.067892,88.74166 12.268232,89 14.464816,89 C 17.349752,89 17.339381,88.977162 16.024751,92.4349 C 15.142347,94.755798 15.28277,95 17.499751,95 C 19.67001,95 19.883739,95.331306 19.370134,97.899329 C 18.906646,100.21677 19.19417,100.92685 20.802753,101.4374 C 23.050883,102.15093 24.622013,105.02947 22.718615,104.94755 C 22.048377,104.9187 20.375,104.16288 19,103.26794 z"
     id="path3212" />
  <path
     style="fill:#14fd14;fill-opacity:1"
     d="M 39.537907,164.47889 C 35.371122,160.97185 34,160.86279 34,164.03841 C 34,165.74337 33.489018,165.59861 29.444616,162.74785 C 25.158622,159.72681 25.025565,159.49813 27.194616,158.88102 C 32.48907,157.3747 49.813339,154.34765 58.122027,153.47711 L 63.744054,152.88807 L 63.237527,155.53779 C 62.804468,157.80319 62.315376,158.12652 59.8655,157.76695 C 57.93998,157.48435 57,157.78162 57,158.67319 C 57,160.38895 55.189896,160.34756 51.75,158.55314 C 48.451775,156.83263 48.36433,157.2354 51.081559,161.63197 C 52.226417,163.48438 52.957411,165 52.70599,165 C 52.454569,165 49.717867,163.88067 46.62443,162.51261 C 43.530994,161.14455 41,160.17541 41,160.35897 C 41,160.54254 41.721951,162.13991 42.604336,163.90869 C 43.486721,165.67747 44.049221,167.27968 43.854336,167.46916 C 43.659451,167.65863 41.717058,166.31301 39.537907,164.47889 z M 108.25,162.41556 C 106.4625,161.63385 105.07812,160.65492 105.07812,160.1065 C 105.07812,159.4246 105.9565,159.43095 110.14793,161.48795 C 114.97732,163.85804 113.64476,164.64493 108.25,162.41556 z M 65.960226,137.40721 C 64.877442,134.88118 63.718157,131.61868 63.384039,130.15721 C 62.884282,127.97123 63.275373,128.24758 65.589383,131.71556 C 67.136441,134.03412 68.587427,135.74591 68.813797,135.51954 C 69.040167,135.29317 68.75419,132.94616 68.178292,130.30398 C 66.842959,124.17755 65.775334,116.43536 66.34889,117.03754 C 66.591149,117.29189 68.220854,121.65061 69.970455,126.72358 C 73.106383,135.81619 73.269447,139.48613 70.615219,141.23469 C 68.587786,142.57033 67.947851,142.04415 65.960226,137.40721 z M 18.5,126.32031 C 13.248422,123.60359 12.043646,122.43557 12.015313,120.05 C 12.003403,119.07847 12.329167,119.02292 13.2,119.8 C 13.896423,120.42145 15.0975,121.01068 15.95,121.02374 C 16.8025,121.03679 20.069221,122.10413 23.209381,123.39559 C 26.34954,124.68706 29.060349,125.31895 29.233401,124.7998 C 29.406452,124.28064 31.742463,124.71786 34.424536,125.77139 L 39.301031,127.68689 L 34.510944,128.34345 C 26.691805,129.41518 23.768536,129.04579 18.5,126.32031 z M 36.748046,116.15062 C 34.868096,112.96812 32.830064,99.750602 33.59479,97.412254 C 34.046962,96.029621 34.630118,96.539674 35.122139,97.379934 C 35.649315,98.280231 34.999416,99.630809 35.774541,101.9243 C 36.110862,102.91943 35.655122,104.23697 35.490159,105.1702 C 35.304848,106.21854 36.703469,107.57985 36.927201,107.7839 C 37.964671,108.7301 36.797411,111.03718 37.862885,113.6641 C 38.395622,114.97756 38.370594,115.02247 38.201858,115.92652 C 38.012465,116.94125 39.876929,119.09375 38.553587,119.09375 C 38.139407,119.09375 37.67379,117.71778 36.748046,116.15062 z M 13.5,96.347353 C 9.9676297,94.55204 5,87.256235 5,83.863665 C 5,82.556387 4.5870178,80.046812 4.0822618,78.28683 C 2.9146407,74.215573 3.7327213,70.533289 5.482257,71.985275 C 6.1631413,72.550358 6.5141835,74.090555 6.2623507,75.407933 C 5.9210969,77.193087 6.3301067,78.000974 7.9022364,78.468971 C 10.667137,79.292037 9.1616117,79.91398 9.1616117,82.622065 C 9.1616117,83.685966 10.109806,84.768009 10.551301,85.898485 C 10.992796,87.028961 10.927591,88.207871 11.525791,89.340505 C 12.128593,90.481852 13.103872,91.129099 13.667659,92.024179 C 14.231446,92.91926 14.292405,94.10592 15.167556,94.957329 C 18.623309,98.319331 17.913114,98.590301 13.5,96.347353 z"
     id="path3227"
     sodipodi:nodetypes="cssscccsssssssssccssccsssssssccssssscccccssssscssscssssssssssc" />
  <path
     style="fill:#ffeb00;fill-opacity:1"
     d="M 87.063876,163.06064 C 84.232981,161.26934 91.243211,149 95.097589,149 C 96.059517,149 98.183536,150.125 99.817631,151.5 C 101.45173,152.875 102.62786,154.14726 103.51048,154.17678 C 106.15345,154.26517 105.60636,156.1756 98.022197,159.98884 C 89.349353,164.34946 89.177016,164.39777 87.063876,163.06064 z"
     id="path3259"
     sodipodi:nodetypes="cssssc" />
</svg>
